<mxfile host="www.draw.io" modified="2023-05-04T07:29:29.006Z" agent="Mozilla/5.0 (Windows NT 10.0; Win64; x64) AppleWebKit/537.36 (KHTML, like Gecko) Chrome/112.0.0.0 Safari/537.36" etag="CyyKcoh6TpCNRTEplyk2" version="21.1.2" type="device">
  <diagram name="第 1 页" id="1i3ckkCIMWdoY1kaFYOg">
    <mxGraphModel dx="2062" dy="608" grid="0" gridSize="10" guides="1" tooltips="1" connect="1" arrows="1" fold="1" page="1" pageScale="1" pageWidth="827" pageHeight="1169" math="0" shadow="0">
      <root>
        <mxCell id="0" />
        <mxCell id="1" parent="0" />
        <mxCell id="8Igi7CRhKM6JrM0Glwqs-1" value="&lt;font style=&quot;font-size: 24px;&quot;&gt;13&lt;/font&gt;" style="whiteSpace=wrap;html=1;aspect=fixed;" vertex="1" parent="1">
          <mxGeometry x="320" y="40" width="40" height="40" as="geometry" />
        </mxCell>
        <mxCell id="8Igi7CRhKM6JrM0Glwqs-2" value="&lt;font style=&quot;font-size: 24px;&quot;&gt;7&lt;/font&gt;" style="whiteSpace=wrap;html=1;aspect=fixed;" vertex="1" parent="1">
          <mxGeometry x="160" y="120" width="40" height="40" as="geometry" />
        </mxCell>
        <mxCell id="8Igi7CRhKM6JrM0Glwqs-3" value="&lt;font style=&quot;font-size: 24px;&quot;&gt;23&lt;/font&gt;" style="whiteSpace=wrap;html=1;aspect=fixed;" vertex="1" parent="1">
          <mxGeometry x="480" y="120" width="40" height="40" as="geometry" />
        </mxCell>
        <mxCell id="8Igi7CRhKM6JrM0Glwqs-4" value="&lt;font style=&quot;font-size: 24px;&quot;&gt;31&lt;/font&gt;" style="whiteSpace=wrap;html=1;aspect=fixed;" vertex="1" parent="1">
          <mxGeometry x="520" y="120" width="40" height="40" as="geometry" />
        </mxCell>
        <mxCell id="8Igi7CRhKM6JrM0Glwqs-5" value="&lt;font style=&quot;font-size: 24px;&quot;&gt;43&lt;/font&gt;" style="whiteSpace=wrap;html=1;aspect=fixed;" vertex="1" parent="1">
          <mxGeometry x="560" y="120" width="40" height="40" as="geometry" />
        </mxCell>
        <mxCell id="8Igi7CRhKM6JrM0Glwqs-6" value="&lt;font style=&quot;font-size: 24px;&quot;&gt;2&lt;/font&gt;" style="whiteSpace=wrap;html=1;aspect=fixed;" vertex="1" parent="1">
          <mxGeometry x="-40" y="200" width="40" height="40" as="geometry" />
        </mxCell>
        <mxCell id="8Igi7CRhKM6JrM0Glwqs-8" value="&lt;font style=&quot;font-size: 24px;&quot;&gt;3&lt;/font&gt;" style="whiteSpace=wrap;html=1;aspect=fixed;" vertex="1" parent="1">
          <mxGeometry y="200" width="40" height="40" as="geometry" />
        </mxCell>
        <mxCell id="8Igi7CRhKM6JrM0Glwqs-9" value="&lt;font style=&quot;font-size: 24px;&quot;&gt;5&lt;/font&gt;" style="whiteSpace=wrap;html=1;aspect=fixed;" vertex="1" parent="1">
          <mxGeometry x="40" y="200" width="40" height="40" as="geometry" />
        </mxCell>
        <mxCell id="8Igi7CRhKM6JrM0Glwqs-10" value="&lt;font style=&quot;font-size: 24px;&quot;&gt;7&lt;/font&gt;" style="whiteSpace=wrap;html=1;aspect=fixed;" vertex="1" parent="1">
          <mxGeometry x="120" y="200" width="40" height="40" as="geometry" />
        </mxCell>
        <mxCell id="8Igi7CRhKM6JrM0Glwqs-11" value="&lt;font style=&quot;font-size: 24px;&quot;&gt;11&lt;/font&gt;" style="whiteSpace=wrap;html=1;aspect=fixed;" vertex="1" parent="1">
          <mxGeometry x="160" y="200" width="40" height="40" as="geometry" />
        </mxCell>
        <mxCell id="8Igi7CRhKM6JrM0Glwqs-12" value="&lt;font style=&quot;font-size: 24px;&quot;&gt;13&lt;/font&gt;" style="whiteSpace=wrap;html=1;aspect=fixed;" vertex="1" parent="1">
          <mxGeometry x="240" y="200" width="40" height="40" as="geometry" />
        </mxCell>
        <mxCell id="8Igi7CRhKM6JrM0Glwqs-13" value="&lt;font style=&quot;font-size: 24px;&quot;&gt;17&lt;/font&gt;" style="whiteSpace=wrap;html=1;aspect=fixed;" vertex="1" parent="1">
          <mxGeometry x="280" y="200" width="40" height="40" as="geometry" />
        </mxCell>
        <mxCell id="8Igi7CRhKM6JrM0Glwqs-14" value="&lt;font style=&quot;font-size: 24px;&quot;&gt;19&lt;/font&gt;" style="whiteSpace=wrap;html=1;aspect=fixed;" vertex="1" parent="1">
          <mxGeometry x="320" y="200" width="40" height="40" as="geometry" />
        </mxCell>
        <mxCell id="8Igi7CRhKM6JrM0Glwqs-15" value="&lt;font style=&quot;font-size: 24px;&quot;&gt;23&lt;/font&gt;" style="whiteSpace=wrap;html=1;aspect=fixed;" vertex="1" parent="1">
          <mxGeometry x="400" y="200" width="40" height="40" as="geometry" />
        </mxCell>
        <mxCell id="8Igi7CRhKM6JrM0Glwqs-16" value="&lt;font style=&quot;font-size: 24px;&quot;&gt;29&lt;/font&gt;" style="whiteSpace=wrap;html=1;aspect=fixed;" vertex="1" parent="1">
          <mxGeometry x="440" y="200" width="40" height="40" as="geometry" />
        </mxCell>
        <mxCell id="8Igi7CRhKM6JrM0Glwqs-17" value="&lt;font style=&quot;font-size: 24px;&quot;&gt;31&lt;/font&gt;" style="whiteSpace=wrap;html=1;aspect=fixed;" vertex="1" parent="1">
          <mxGeometry x="520" y="200" width="40" height="40" as="geometry" />
        </mxCell>
        <mxCell id="8Igi7CRhKM6JrM0Glwqs-18" value="&lt;font style=&quot;font-size: 24px;&quot;&gt;37&lt;/font&gt;" style="whiteSpace=wrap;html=1;aspect=fixed;" vertex="1" parent="1">
          <mxGeometry x="560" y="200" width="40" height="40" as="geometry" />
        </mxCell>
        <mxCell id="8Igi7CRhKM6JrM0Glwqs-19" value="&lt;font style=&quot;font-size: 24px;&quot;&gt;41&lt;/font&gt;" style="whiteSpace=wrap;html=1;aspect=fixed;" vertex="1" parent="1">
          <mxGeometry x="600" y="200" width="40" height="40" as="geometry" />
        </mxCell>
        <mxCell id="8Igi7CRhKM6JrM0Glwqs-20" value="&lt;font style=&quot;font-size: 24px;&quot;&gt;43&lt;/font&gt;" style="whiteSpace=wrap;html=1;aspect=fixed;" vertex="1" parent="1">
          <mxGeometry x="680" y="200" width="40" height="40" as="geometry" />
        </mxCell>
        <mxCell id="8Igi7CRhKM6JrM0Glwqs-21" value="&lt;font style=&quot;font-size: 24px;&quot;&gt;47&lt;/font&gt;" style="whiteSpace=wrap;html=1;aspect=fixed;" vertex="1" parent="1">
          <mxGeometry x="720" y="200" width="40" height="40" as="geometry" />
        </mxCell>
        <mxCell id="8Igi7CRhKM6JrM0Glwqs-23" value="&lt;font style=&quot;font-size: 24px;&quot;&gt;13&lt;/font&gt;" style="whiteSpace=wrap;html=1;aspect=fixed;" vertex="1" parent="1">
          <mxGeometry x="360" y="340" width="40" height="40" as="geometry" />
        </mxCell>
        <mxCell id="8Igi7CRhKM6JrM0Glwqs-24" value="&lt;font style=&quot;font-size: 24px;&quot;&gt;7&lt;/font&gt;" style="whiteSpace=wrap;html=1;aspect=fixed;" vertex="1" parent="1">
          <mxGeometry x="200" y="420" width="40" height="40" as="geometry" />
        </mxCell>
        <mxCell id="8Igi7CRhKM6JrM0Glwqs-25" value="&lt;font style=&quot;font-size: 24px;&quot;&gt;23&lt;/font&gt;" style="whiteSpace=wrap;html=1;aspect=fixed;" vertex="1" parent="1">
          <mxGeometry x="520" y="420" width="40" height="40" as="geometry" />
        </mxCell>
        <mxCell id="8Igi7CRhKM6JrM0Glwqs-26" value="&lt;font style=&quot;font-size: 24px;&quot;&gt;31&lt;/font&gt;" style="whiteSpace=wrap;html=1;aspect=fixed;" vertex="1" parent="1">
          <mxGeometry x="560" y="420" width="40" height="40" as="geometry" />
        </mxCell>
        <mxCell id="8Igi7CRhKM6JrM0Glwqs-27" value="&lt;font style=&quot;font-size: 24px;&quot;&gt;43&lt;/font&gt;" style="whiteSpace=wrap;html=1;aspect=fixed;" vertex="1" parent="1">
          <mxGeometry x="680" y="420" width="40" height="40" as="geometry" />
        </mxCell>
        <mxCell id="8Igi7CRhKM6JrM0Glwqs-28" value="&lt;font style=&quot;font-size: 24px;&quot;&gt;2&lt;/font&gt;" style="whiteSpace=wrap;html=1;aspect=fixed;" vertex="1" parent="1">
          <mxGeometry y="500" width="40" height="40" as="geometry" />
        </mxCell>
        <mxCell id="8Igi7CRhKM6JrM0Glwqs-29" value="&lt;font style=&quot;font-size: 24px;&quot;&gt;3&lt;/font&gt;" style="whiteSpace=wrap;html=1;aspect=fixed;" vertex="1" parent="1">
          <mxGeometry x="40" y="500" width="40" height="40" as="geometry" />
        </mxCell>
        <mxCell id="8Igi7CRhKM6JrM0Glwqs-30" value="&lt;font style=&quot;font-size: 24px;&quot;&gt;5&lt;/font&gt;" style="whiteSpace=wrap;html=1;aspect=fixed;" vertex="1" parent="1">
          <mxGeometry x="80" y="500" width="40" height="40" as="geometry" />
        </mxCell>
        <mxCell id="8Igi7CRhKM6JrM0Glwqs-31" value="&lt;font style=&quot;font-size: 24px;&quot;&gt;7&lt;/font&gt;" style="whiteSpace=wrap;html=1;aspect=fixed;" vertex="1" parent="1">
          <mxGeometry x="160" y="500" width="40" height="40" as="geometry" />
        </mxCell>
        <mxCell id="8Igi7CRhKM6JrM0Glwqs-32" value="&lt;font style=&quot;font-size: 24px;&quot;&gt;11&lt;/font&gt;" style="whiteSpace=wrap;html=1;aspect=fixed;" vertex="1" parent="1">
          <mxGeometry x="200" y="500" width="40" height="40" as="geometry" />
        </mxCell>
        <mxCell id="8Igi7CRhKM6JrM0Glwqs-33" value="&lt;font style=&quot;font-size: 24px;&quot;&gt;13&lt;/font&gt;" style="whiteSpace=wrap;html=1;aspect=fixed;" vertex="1" parent="1">
          <mxGeometry x="280" y="500" width="40" height="40" as="geometry" />
        </mxCell>
        <mxCell id="8Igi7CRhKM6JrM0Glwqs-34" value="&lt;font style=&quot;font-size: 24px;&quot;&gt;17&lt;/font&gt;" style="whiteSpace=wrap;html=1;aspect=fixed;" vertex="1" parent="1">
          <mxGeometry x="320" y="500" width="40" height="40" as="geometry" />
        </mxCell>
        <mxCell id="8Igi7CRhKM6JrM0Glwqs-35" value="&lt;font style=&quot;font-size: 24px;&quot;&gt;19&lt;/font&gt;" style="whiteSpace=wrap;html=1;aspect=fixed;" vertex="1" parent="1">
          <mxGeometry x="360" y="500" width="40" height="40" as="geometry" />
        </mxCell>
        <mxCell id="8Igi7CRhKM6JrM0Glwqs-36" value="&lt;font style=&quot;font-size: 24px;&quot;&gt;23&lt;/font&gt;" style="whiteSpace=wrap;html=1;aspect=fixed;" vertex="1" parent="1">
          <mxGeometry x="440" y="500" width="40" height="40" as="geometry" />
        </mxCell>
        <mxCell id="8Igi7CRhKM6JrM0Glwqs-37" value="&lt;font style=&quot;font-size: 24px;&quot;&gt;29&lt;/font&gt;" style="whiteSpace=wrap;html=1;aspect=fixed;" vertex="1" parent="1">
          <mxGeometry x="480" y="500" width="40" height="40" as="geometry" />
        </mxCell>
        <mxCell id="8Igi7CRhKM6JrM0Glwqs-38" value="&lt;font style=&quot;font-size: 24px;&quot;&gt;31&lt;/font&gt;" style="whiteSpace=wrap;html=1;aspect=fixed;" vertex="1" parent="1">
          <mxGeometry x="560" y="500" width="40" height="40" as="geometry" />
        </mxCell>
        <mxCell id="8Igi7CRhKM6JrM0Glwqs-39" value="&lt;font style=&quot;font-size: 24px;&quot;&gt;37&lt;/font&gt;" style="whiteSpace=wrap;html=1;aspect=fixed;" vertex="1" parent="1">
          <mxGeometry x="600" y="500" width="40" height="40" as="geometry" />
        </mxCell>
        <mxCell id="8Igi7CRhKM6JrM0Glwqs-40" value="&lt;font style=&quot;font-size: 24px;&quot;&gt;41&lt;/font&gt;" style="whiteSpace=wrap;html=1;aspect=fixed;" vertex="1" parent="1">
          <mxGeometry x="720" y="500" width="40" height="40" as="geometry" />
        </mxCell>
        <mxCell id="8Igi7CRhKM6JrM0Glwqs-41" value="&lt;font style=&quot;font-size: 24px;&quot;&gt;43&lt;/font&gt;" style="whiteSpace=wrap;html=1;aspect=fixed;" vertex="1" parent="1">
          <mxGeometry x="800" y="500" width="40" height="40" as="geometry" />
        </mxCell>
        <mxCell id="8Igi7CRhKM6JrM0Glwqs-42" value="&lt;font style=&quot;font-size: 24px;&quot;&gt;47&lt;/font&gt;" style="whiteSpace=wrap;html=1;aspect=fixed;" vertex="1" parent="1">
          <mxGeometry x="840" y="500" width="40" height="40" as="geometry" />
        </mxCell>
        <mxCell id="8Igi7CRhKM6JrM0Glwqs-43" value="&lt;font style=&quot;font-size: 24px;&quot;&gt;38&lt;/font&gt;" style="whiteSpace=wrap;html=1;aspect=fixed;" vertex="1" parent="1">
          <mxGeometry x="680" y="500" width="40" height="40" as="geometry" />
        </mxCell>
        <mxCell id="8Igi7CRhKM6JrM0Glwqs-46" value="" style="endArrow=classic;html=1;rounded=0;entryX=0.75;entryY=0;entryDx=0;entryDy=0;exitX=0.25;exitY=1;exitDx=0;exitDy=0;" edge="1" parent="1" source="8Igi7CRhKM6JrM0Glwqs-24" target="8Igi7CRhKM6JrM0Glwqs-28">
          <mxGeometry width="50" height="50" relative="1" as="geometry">
            <mxPoint x="400" y="650" as="sourcePoint" />
            <mxPoint x="450" y="600" as="targetPoint" />
          </mxGeometry>
        </mxCell>
        <mxCell id="8Igi7CRhKM6JrM0Glwqs-47" value="" style="endArrow=classic;html=1;rounded=0;entryX=0.5;entryY=0;entryDx=0;entryDy=0;exitX=0.25;exitY=1;exitDx=0;exitDy=0;" edge="1" parent="1" source="8Igi7CRhKM6JrM0Glwqs-24" target="8Igi7CRhKM6JrM0Glwqs-31">
          <mxGeometry width="50" height="50" relative="1" as="geometry">
            <mxPoint x="230" y="610" as="sourcePoint" />
            <mxPoint x="50" y="650" as="targetPoint" />
          </mxGeometry>
        </mxCell>
        <mxCell id="8Igi7CRhKM6JrM0Glwqs-48" value="" style="endArrow=classic;html=1;rounded=0;entryX=0.25;entryY=0;entryDx=0;entryDy=0;" edge="1" parent="1" target="8Igi7CRhKM6JrM0Glwqs-24">
          <mxGeometry width="50" height="50" relative="1" as="geometry">
            <mxPoint x="370" y="380" as="sourcePoint" />
            <mxPoint x="50" y="520" as="targetPoint" />
          </mxGeometry>
        </mxCell>
        <mxCell id="8Igi7CRhKM6JrM0Glwqs-49" value="" style="endArrow=classic;html=1;rounded=0;entryX=0.25;entryY=0;entryDx=0;entryDy=0;exitX=0.25;exitY=1;exitDx=0;exitDy=0;" edge="1" parent="1" source="8Igi7CRhKM6JrM0Glwqs-23" target="8Igi7CRhKM6JrM0Glwqs-25">
          <mxGeometry width="50" height="50" relative="1" as="geometry">
            <mxPoint x="240" y="490" as="sourcePoint" />
            <mxPoint x="60" y="530" as="targetPoint" />
          </mxGeometry>
        </mxCell>
        <mxCell id="8Igi7CRhKM6JrM0Glwqs-50" value="" style="endArrow=classic;html=1;rounded=0;entryX=0.25;entryY=0;entryDx=0;entryDy=0;" edge="1" parent="1" target="8Igi7CRhKM6JrM0Glwqs-27">
          <mxGeometry width="50" height="50" relative="1" as="geometry">
            <mxPoint x="390" y="380" as="sourcePoint" />
            <mxPoint x="650" y="420" as="targetPoint" />
          </mxGeometry>
        </mxCell>
        <mxCell id="8Igi7CRhKM6JrM0Glwqs-51" value="" style="endArrow=classic;html=1;rounded=0;entryX=0.75;entryY=0;entryDx=0;entryDy=0;exitX=0.5;exitY=1;exitDx=0;exitDy=0;" edge="1" parent="1" source="8Igi7CRhKM6JrM0Glwqs-25" target="8Igi7CRhKM6JrM0Glwqs-33">
          <mxGeometry width="50" height="50" relative="1" as="geometry">
            <mxPoint x="260" y="510" as="sourcePoint" />
            <mxPoint x="80" y="550" as="targetPoint" />
          </mxGeometry>
        </mxCell>
        <mxCell id="8Igi7CRhKM6JrM0Glwqs-52" value="" style="endArrow=classic;html=1;rounded=0;entryX=0.75;entryY=0;entryDx=0;entryDy=0;exitX=1;exitY=1;exitDx=0;exitDy=0;" edge="1" parent="1" source="8Igi7CRhKM6JrM0Glwqs-25" target="8Igi7CRhKM6JrM0Glwqs-36">
          <mxGeometry width="50" height="50" relative="1" as="geometry">
            <mxPoint x="270" y="520" as="sourcePoint" />
            <mxPoint x="90" y="560" as="targetPoint" />
          </mxGeometry>
        </mxCell>
        <mxCell id="8Igi7CRhKM6JrM0Glwqs-53" value="" style="endArrow=classic;html=1;rounded=0;entryX=0.5;entryY=0;entryDx=0;entryDy=0;exitX=0.5;exitY=1;exitDx=0;exitDy=0;" edge="1" parent="1" source="8Igi7CRhKM6JrM0Glwqs-26" target="8Igi7CRhKM6JrM0Glwqs-38">
          <mxGeometry width="50" height="50" relative="1" as="geometry">
            <mxPoint x="280" y="530" as="sourcePoint" />
            <mxPoint x="100" y="570" as="targetPoint" />
          </mxGeometry>
        </mxCell>
        <mxCell id="8Igi7CRhKM6JrM0Glwqs-54" value="" style="endArrow=classic;html=1;rounded=0;exitX=0.25;exitY=1;exitDx=0;exitDy=0;entryX=0.5;entryY=0;entryDx=0;entryDy=0;" edge="1" parent="1" source="8Igi7CRhKM6JrM0Glwqs-27" target="8Igi7CRhKM6JrM0Glwqs-43">
          <mxGeometry width="50" height="50" relative="1" as="geometry">
            <mxPoint x="670" y="460" as="sourcePoint" />
            <mxPoint x="690" y="490" as="targetPoint" />
          </mxGeometry>
        </mxCell>
        <mxCell id="8Igi7CRhKM6JrM0Glwqs-56" value="" style="endArrow=classic;html=1;rounded=0;entryX=0.5;entryY=0;entryDx=0;entryDy=0;exitX=0.75;exitY=1;exitDx=0;exitDy=0;" edge="1" parent="1" source="8Igi7CRhKM6JrM0Glwqs-27" target="8Igi7CRhKM6JrM0Glwqs-41">
          <mxGeometry width="50" height="50" relative="1" as="geometry">
            <mxPoint x="300" y="550" as="sourcePoint" />
            <mxPoint x="120" y="590" as="targetPoint" />
          </mxGeometry>
        </mxCell>
        <mxCell id="8Igi7CRhKM6JrM0Glwqs-57" value="&lt;font style=&quot;font-size: 24px;&quot;&gt;38&lt;/font&gt;" style="whiteSpace=wrap;html=1;aspect=fixed;" vertex="1" parent="1">
          <mxGeometry x="400" y="340" width="40" height="40" as="geometry" />
        </mxCell>
      </root>
    </mxGraphModel>
  </diagram>
</mxfile>
